<svg width="20" height="16" viewBox="0 0 20 16" fill="none" xmlns="http://www.w3.org/2000/svg">
<path d="M19.3742 1.86824C18.6617 2.18395 17.8964 2.39726 17.0917 2.49368C17.922 1.9969 18.5431 1.21504 18.8392 0.293965C18.0592 0.757279 17.2055 1.0834 16.3153 1.25815C15.7166 0.618944 14.9236 0.195265 14.0595 0.0528959C13.1954 -0.0894731 12.3084 0.0574331 11.5363 0.470807C10.7643 0.88418 10.1502 1.54089 9.78963 2.33899C9.42902 3.13708 9.34199 4.0319 9.54205 4.88453C7.96154 4.80517 6.41538 4.39437 5.0039 3.67878C3.59243 2.9632 2.34719 1.95882 1.34901 0.730837C1.0077 1.31959 0.811454 2.0022 0.811454 2.72918C0.811074 3.38363 0.972237 4.02806 1.28065 4.60528C1.58905 5.18251 2.03517 5.67468 2.57942 6.03814C1.94824 6.01806 1.33098 5.84751 0.77903 5.54069V5.59188C0.778967 6.50977 1.09647 7.39942 1.67767 8.10986C2.25887 8.82031 3.06797 9.30779 3.96768 9.48959C3.38215 9.64806 2.76828 9.6714 2.17241 9.55786C2.42625 10.3476 2.92072 11.0383 3.58658 11.5331C4.25245 12.0279 5.05637 12.3021 5.88582 12.3173C4.47779 13.4226 2.73888 14.0222 0.94883 14.0196C0.631741 14.0197 0.31492 14.0011 0 13.9641C1.81701 15.1324 3.93213 15.7524 6.09231 15.75C13.4048 15.75 17.4023 9.69352 17.4023 4.44083C17.4023 4.27018 17.3981 4.09782 17.3904 3.92716C18.168 3.36484 18.8391 2.66851 19.3725 1.8708L19.3742 1.86824V1.86824Z" fill="#916B46"/>
</svg>
