<svg width="20" height="16" viewBox="0 0 20 16" fill="none" xmlns="http://www.w3.org/2000/svg">
<path d="M16.9302 1.26615C15.649 0.678967 14.2878 0.251923 12.8572 0.0010346C12.8305 0.0010346 12.8038 0.00103451 12.7932 0.0330628C12.617 0.348008 12.4195 0.7537 12.286 1.07398C10.738 0.844447 9.21667 0.844447 7.71134 1.07398C7.57255 0.743024 7.37504 0.34267 7.17753 0.0330628C7.16152 0.0117106 7.14016 -0.00430346 7.11347 0.0010346C5.88572 0.246585 4.31633 0.694982 3.05655 1.26615C3.04588 1.26615 3.0352 1.27683 3.02986 1.28751C0.414215 5.18428 -0.279732 8.92092 0.093932 12.6576C0.093932 12.6736 0.104608 12.6949 0.120622 12.7109C1.8288 13.9707 3.4836 14.7394 5.11704 15.2358C5.14373 15.2358 5.17042 15.2358 5.18644 15.2145C5.57078 14.6914 5.91241 14.1362 6.21134 13.549C6.22736 13.517 6.21134 13.4743 6.17398 13.4636C5.64017 13.2501 5.10636 13.0045 4.60993 12.7163C4.57256 12.6949 4.56722 12.6362 4.60993 12.6095C4.71669 12.5294 4.82345 12.4494 4.91953 12.3693C4.93555 12.3533 4.96224 12.3533 4.98359 12.3586C8.26115 13.8533 11.8163 13.8533 15.0191 12.3586C15.0405 12.348 15.0672 12.3533 15.0832 12.364C15.1846 12.4494 15.286 12.5294 15.3928 12.6095C15.4302 12.6362 15.4248 12.6949 15.3928 12.7163C14.8964 13.0099 14.3786 13.2501 13.8287 13.4636C13.7914 13.4796 13.7754 13.517 13.7967 13.5544C14.0956 14.1415 14.4426 14.6914 14.8109 15.2092C14.827 15.2305 14.8537 15.2412 14.8803 15.2305C16.5138 14.7234 18.1739 13.96 19.8874 12.7056C19.9035 12.6949 19.9141 12.6789 19.9141 12.6522C20.3305 8.33374 19.2148 4.59176 16.9568 1.28217C16.9568 1.27149 16.9408 1.26081 16.9302 1.26081V1.26615ZM6.68109 10.3942C5.66686 10.3942 4.86615 9.48676 4.86615 8.36577C4.86615 7.24477 5.66686 6.3373 6.68109 6.3373C7.69532 6.3373 8.49603 7.24477 8.49603 8.36577C8.49603 9.48676 7.69532 10.3942 6.68109 10.3942ZM13.3537 10.3942C12.3394 10.3942 11.5387 9.48676 11.5387 8.36577C11.5387 7.24477 12.3394 6.3373 13.3537 6.3373C14.3679 6.3373 15.1686 7.24477 15.1686 8.36577C15.1686 9.48676 14.3679 10.3942 13.3537 10.3942Z" fill="#916B46"/>
</svg>
